<svg version="1.0" xmlns="http://www.w3.org/2000/svg"
 width="443.000000pt" height="151.000000pt" viewBox="0 0 443.000000 151.000000"
 preserveAspectRatio="xMidYMid meet">

<g transform="translate(0.000000,151.000000) scale(0.100000,-0.100000)"
fill="#000000" stroke="none">
<path d="M350 1205 c0 -11 12 -15 50 -15 38 0 50 4 50 15 0 11 -12 15 -50 15
-38 0 -50 -4 -50 -15z"/>
<path d="M1680 1183 c0 -14 6 -23 15 -23 11 0 15 -11 15 -40 0 -29 -4 -40 -15
-40 -9 0 -15 -9 -15 -25 0 -21 -5 -25 -30 -25 -20 0 -30 5 -30 15 0 8 -6 15
-14 15 -8 0 -17 7 -20 16 -5 13 -21 14 -113 8 -60 -4 -109 -11 -111 -15 -2 -5
-28 -9 -58 -9 -39 0 -54 -4 -54 -14 0 -15 -42 -26 -96 -26 -27 0 -34 -4 -34
-20 0 -11 -7 -20 -15 -20 -8 0 -15 -4 -15 -10 0 -26 305 5 325 33 7 10 16 17
21 17 5 0 15 9 22 20 10 16 23 20 67 20 48 0 55 -2 55 -20 0 -13 7 -20 20 -20
13 0 20 -7 20 -20 0 -11 7 -20 15 -20 8 0 15 -5 15 -10 0 -6 12 -16 28 -23 32
-14 42 -25 42 -51 0 -19 61 -86 79 -86 5 0 12 -9 16 -20 7 -22 65 -67 65 -51
0 6 9 11 20 11 11 0 20 -4 20 -10 0 -5 7 -10 15 -10 9 0 15 9 15 25 0 14 5 25
10 25 6 0 10 7 10 15 0 8 5 15 10 15 6 0 10 -13 10 -30 0 -20 5 -30 15 -30 8
0 15 7 15 15 0 10 10 15 30 15 20 0 30 -5 30 -15 0 -8 9 -15 20 -15 11 0 20
-4 20 -10 0 -5 8 -10 18 -10 16 1 16 1 0 14 -10 7 -18 18 -18 25 0 6 -6 11
-14 11 -8 0 -17 8 -20 18 -3 9 -21 27 -38 39 -43 29 -203 186 -296 288 -58 64
-72 76 -72 58z m240 -348 c0 -16 6 -25 15 -25 8 0 15 -7 15 -15 0 -8 -7 -15
-15 -15 -8 0 -15 7 -15 15 0 8 -9 15 -20 15 -15 0 -20 7 -20 25 0 18 5 25 20
25 15 0 20 -7 20 -25z"/>
<path d="M900 1010 c20 -13 50 -13 50 0 0 6 -15 10 -32 10 -25 0 -29 -3 -18-10z"/>
<path d="M1900 710 c6 -11 13 -20 15 -20 3 0 5 9 5 20 0 11 -7 20 -15 20 -13 0 -14 -4 -5 -20z"/>
<path d="M1950 695 c0 -14 5 -25 10 -25 6 0 10 11 10 25 0 14 -4 25 -10 25 -5 0 -10 -11 -10 -25z"/>
<path d="M2180 688 c0 -18 39 -34 62 -25 7 3 2 6 -11 6 -13 1 -30 9 -37 19
-13 16 -13 16 -14 0z"/>
<path d="M2533 523 c-49 -4 -53 -6 -53 -29 0 -22 -4 -24 -50 -24 -27 0 -50 -4
-50 -10 0 -15 -57 -12 -63 3 -4 10 -6 10 -6 0 -1 -15 -31 -18 -31 -3 0 6 -12
10 -27 10 -27 -1 -27 -1 -9 -15 11 -8 27 -15 37 -15 9 0 30 -7 45 -15 39 -20
87 -19 135 4 22 11 52 22 67 25 50 11 152 15 152 6 0 -4 23 -11 50 -15 33 -5
50 -12 50 -21 0 -8 10 -14 25 -14 16 0 25 -6 25 -15 0 -9 9 -15 25 -15 14 0
25 -4 25 -10 0 -5 14 -10 30 -10 20 0 30 -5 30 -15 0 -8 1 -15 3 -15 35 -4
152 -6 130 -3 -20 3 -33 10 -33 19 0 9 -11 14 -30 14 -16 0 -30 5 -30 10 0 6
-9 10 -20 10 -11 0 -20 7 -20 15 0 10 -10 15 -30 15 -19 0 -30 5 -30 14 0 13
-48 26 -102 26 -16 0 -28 5 -28 10 0 6 -16 10 -35 10 -30 0 -35 3 -35 24 0 19
-6 24 -37 30 -21 3 -42 5 -48 4 -5 -1 -34 -3 -62 -5z"/>
<path d="M3910 460 c0 -5 5 -10 10 -10 6 0 10 5 10 10 0 6 -4 10 -10 10 -5 0
-10 -4 -10 -10z"/>
<path d="M3323 443 c-7 -2 -13 -11 -13 -19 0 -8 -7 -14 -15 -14 -8 0 -15 -5
-15 -11 0 -23 -30 -39 -74 -39 -30 0 -46 -4 -46 -12 0 -9 16 -12 56 -10 51 4
57 7 76 38 11 18 28 36 39 39 35 11 259 -6 274 -21 7 -8 22 -14 32 -14 21 -1
53 -23 53 -37 0 -12 44 -33 70 -33 11 0 24 -8 29 -18 5 -10 29 -27 53 -37 24
-11 45 -22 48 -26 8 -11 221 -123 260 -136 53 -19 68 -16 101 19 35 39 35 42
7 95 -17 33 -34 47 -70 63 -27 11 -48 25 -48 30 0 6 -18 10 -40 10 -29 0 -40
-4 -40 -15 0 -10 -11 -15 -35 -15 -24 0 -35 -5 -35 -15 0 -11 -11 -15 -40 -15
-29 0 -40 4 -40 15 0 9 -9 15 -25 15 -16 0 -25 6 -25 15 0 8 -7 15 -15 15 -8
0 -15 5 -15 10 0 6 -9 10 -20 10 -11 0 -20 7 -20 15 0 11 -11 15 -36 15 -35 0
-64 18 -64 39 0 6 -11 11 -25 11 -14 0 -25 6 -25 13 0 10 -26 16 -97 20 -112
8 -202 8 -220 0z"/>
</g>
</svg>
