<svg version="1.1" id="Layer_1" xmlns="http://www.w3.org/2000/svg" xmlns:xlink="http://www.w3.org/1999/xlink" x="0px" y="0px"
	 width="100%" viewBox="0 0 443 151" enable-background="new 0 0 443 151" xml:space="preserve">
<path fill="none" opacity="1.000000" stroke="none"
	d="
M289.000000,152.000000
	C192.666672,152.000000 96.833336,152.000000 1.000000,152.000000
	C1.000000,101.666664 1.000000,51.333332 1.000000,1.000000
	C148.666672,1.000000 296.333344,1.000000 444.000000,1.000000
	C444.000000,51.333332 444.000000,101.666664 444.000000,152.000000
	C392.500000,152.000000 341.000000,152.000000 289.000000,152.000000
M118.380524,39.227402
	C117.581100,39.531910 116.781670,39.836418 115.171844,40.079670
	C112.046349,40.711891 108.920860,41.344112 105.147018,41.985825
	C104.424477,42.295815 103.701935,42.605808 102.233047,42.995911
	C100.157990,42.314613 98.082939,41.633312 95.676674,40.333866
	C90.455742,38.551441 85.234802,36.769016 79.880600,34.289459
	C76.574097,32.254768 73.267601,30.220078 69.253487,28.018759
	C66.193909,25.992142 63.134331,23.965523 59.746571,21.269392
	C58.449463,20.644773 57.198219,19.620224 55.847244,19.465284
	C50.222099,18.820147 44.454533,15.686860 38.259373,20.120142
	C35.081177,21.129992 31.789667,21.889467 28.772438,23.254990
	C27.256922,23.940874 26.240244,25.728979 24.383293,26.932014
	C21.300377,29.806942 21.501013,30.980423 25.906578,34.755352
	C27.075718,30.265730 30.614758,30.936279 34.248386,31.755774
	C38.169392,32.107948 42.090393,32.460125 46.829594,32.978546
	C50.340786,33.702538 53.991096,35.994400 57.737438,32.016518
	C58.165699,31.960609 58.593960,31.904701 59.738422,31.999487
	C64.812408,33.942314 69.886391,35.885143 75.563484,38.109222
	C76.354874,38.437107 77.146263,38.764988 78.023643,39.814659
	C81.757126,47.169914 88.676636,49.322357 96.731743,50.967274
	C98.122810,51.343842 99.513885,51.720409 101.251701,52.766026
	C104.729546,56.726856 108.851265,54.853695 113.239700,54.769581
	C114.736908,55.179646 116.273567,56.045853 117.724457,55.920372
	C123.824181,55.392849 129.898270,54.568924 136.768448,54.008484
	C142.918411,53.320950 145.711884,50.982529 145.750839,46.989441
	C146.551910,46.331013 147.352966,45.672585 148.711639,45.013248
	C149.080566,45.049702 149.449493,45.086155 149.938950,45.842918
	C154.266953,48.273247 158.594940,50.703575 163.109741,53.560066
	C163.295410,53.835682 163.553146,53.993992 164.192413,54.645420
	C167.108200,57.799675 170.024002,60.953930 173.035004,64.807938
	C176.006302,67.236816 178.977615,69.665703 181.983887,72.028305
	C181.983887,72.028305 181.909317,72.020859 182.021927,72.549980
	C182.314453,72.738876 182.606995,72.927773 182.997971,73.806602
	C184.998337,75.478798 186.998703,77.150986 189.646988,79.177032
	C192.426605,81.824356 195.206223,84.471680 198.255371,87.752083
	C201.837158,90.240959 205.418961,92.729828 209.328445,95.849861
	C211.885849,96.500061 214.443237,97.150261 217.565002,98.079643
	C218.105240,98.711395 218.645477,99.343147 219.220947,100.635582
	C221.121567,102.456444 223.022171,104.277306 225.251038,106.717575
	C227.773575,107.727989 230.296127,108.738403 233.689651,109.935921
	C234.593338,110.196671 235.492981,110.472610 236.401382,110.715721
	C242.461761,112.337570 248.639923,109.574623 249.084137,105.001144
	C249.084137,105.001144 249.094238,105.065063 249.920547,105.015701
	C253.264450,105.316216 256.608368,105.616730 260.750946,106.071648
	C268.686646,108.102638 277.107117,108.726944 284.244293,114.666855
	C287.904510,116.306274 291.564728,117.945694 295.785217,119.729607
	C296.168671,119.751419 296.552155,119.773224 297.632385,120.003822
	C298.388306,119.653847 299.144257,119.303871 300.111328,118.425888
	C300.689209,117.966934 301.267059,117.507988 302.346405,117.752502
	C309.933868,117.507401 317.526886,117.359039 325.103210,116.921280
	C326.355438,116.848930 328.258850,115.763664 328.626526,114.713982
	C330.599884,109.079948 334.951294,108.544395 340.644897,109.187462
	C345.077515,109.731560 349.510101,110.275658 354.774994,110.951942
	C357.460510,111.320587 360.145996,111.689224 363.132080,112.668869
	C365.405457,114.444290 367.678833,116.219704 370.218231,118.666000
	C379.121674,123.475632 388.025116,128.285263 397.244812,133.739624
	C402.826904,136.445969 408.408966,139.152313 414.752258,142.012604
	C417.859650,144.682037 420.966675,142.875854 424.046570,141.973099
	C428.513397,140.663834 429.318054,137.024277 427.516632,132.655655
	C425.580750,127.961037 422.035797,125.789986 417.558563,123.327988
	C415.053009,122.192650 412.547455,121.057304 409.949158,119.490601
	C409.949158,119.490601 409.821381,119.068275 409.800995,118.388496
	C399.774323,108.843971 391.229401,97.261177 376.631287,93.966270
	C373.167114,93.184395 369.617401,92.781494 365.564880,92.096031
	C365.383179,92.126518 365.201447,92.157013 364.156097,92.044594
	C362.115021,92.034195 360.073975,92.023796 357.543457,91.332336
	C352.033325,90.420250 346.784760,91.080795 341.156891,94.007065
	C335.901245,95.339989 331.796448,98.253174 328.200195,103.007057
	C323.734467,104.035965 319.315948,105.523689 314.792236,105.989227
	C307.498474,106.739830 301.399109,102.800064 294.670624,99.308914
	C288.433014,96.589043 282.195435,93.869179 275.363220,90.880974
	C274.583221,90.581955 273.803253,90.282928 272.975006,89.257744
	C271.611572,87.845161 270.248169,86.432579 268.591339,84.284462
	C264.051270,83.851334 259.508606,83.036942 254.971710,83.067764
	C246.604324,83.124603 238.241409,83.709282 229.874222,84.005211
	C227.237503,84.098457 224.593033,83.971771 221.330597,83.633293
	C219.914642,82.697983 218.498672,81.762672 216.996368,80.189461
	C216.037018,79.122833 215.077652,78.056213 213.838577,76.351334
	C211.253052,73.871292 208.667526,71.391258 205.784454,68.287903
	C203.191727,66.512955 200.598999,64.737999 197.892563,62.460682
	C197.613617,62.274258 197.334656,62.087830 196.806717,61.282681
	C195.484955,60.186634 194.163177,59.090588 192.794403,57.296787
	C189.562775,54.519058 186.331146,51.741329 182.989426,48.231884
	C180.324615,45.541203 177.659805,42.850517 174.367142,39.827972
	C172.599869,37.895569 170.832596,35.963165 168.843094,33.432308
	C167.902054,33.012081 166.960999,32.591854 165.299545,31.997782
	C163.521332,31.065702 161.743103,30.133621 159.054108,29.063412
	C152.710876,29.421089 146.367645,29.778765 139.285080,30.267164
	C136.037949,31.296259 132.694458,32.101913 129.582199,33.443810
	C127.894318,34.171566 126.600250,35.812679 124.872406,37.622101
	C123.915977,38.409004 122.959549,39.195908 121.947433,39.334602
	C120.974968,39.278290 120.002510,39.221977 118.380524,39.227402
z"/>
<path fill="#FAF42F" opacity="1.000000" stroke="none"
	d="
M268.884735,85.019997
	C270.248169,86.432579 271.611572,87.845161 272.895844,89.853081
	C272.548126,90.648415 272.279572,90.848412 271.583313,91.033035
	C269.267731,90.234375 267.240875,89.675850 265.524902,88.614594
	C263.012726,87.060898 260.052490,87.981140 258.501221,90.967773
	C255.116608,90.983643 252.149918,90.707947 249.290131,91.139992
	C248.071259,91.324127 247.075851,92.987343 245.512924,93.979233
	C238.690552,93.986290 232.334137,93.992546 225.590027,94.003479
	C222.486694,94.663536 219.771088,95.318909 216.896881,95.684975
	C215.812836,93.945358 214.887390,92.495064 214.015015,90.670959
	C214.711044,87.930092 215.354004,85.563042 216.032196,83.133377
	C216.067444,83.070763 216.090469,82.928917 216.369080,83.122726
	C220.014267,86.783836 223.887054,88.904541 229.395752,87.992188
	C236.155884,88.013123 242.449112,88.111328 248.726913,87.845207
	C250.511627,87.769554 252.251404,86.633476 254.473633,86.013542
	C259.585236,85.702255 264.234985,85.361122 268.884735,85.019997
z"/>
<path fill="#FAF42F" opacity="1.000000" stroke="none"
	d="
M339.870117,108.873817
	C334.951294,108.544395 330.599884,109.079948 328.626526,114.713982
	C328.258850,115.763664 326.355438,116.848930 325.103210,116.921280
	C317.526886,117.359039 309.933868,117.507401 302.018341,117.104080
	C300.840088,115.625099 299.989899,114.794533 299.597107,113.976578
	C305.102264,113.994049 310.150482,113.963898 315.197693,114.020409
	C317.322235,114.044197 319.230713,113.971672 319.030518,111.051460
	C319.027802,111.037292 319.006012,111.018417 319.443542,111.026222
	C323.785614,111.675583 327.022003,110.780487 329.027344,107.048965
	C329.026154,107.041115 329.044830,107.049515 329.409485,107.046494
	C332.822601,104.678299 335.871063,102.313133 339.371643,99.974342
	C342.207397,100.020508 344.591034,100.040306 346.979553,100.483582
	C346.680023,103.681816 347.484283,105.187714 350.716858,105.118973
	C352.129974,105.088913 353.570312,106.338127 354.541473,107.037888
	C350.310211,107.321640 346.535767,107.573914 342.436920,107.850250
	C341.365051,108.207481 340.617584,108.540649 339.870117,108.873817
z"/>
<path fill="#FAF42F" opacity="1.000000" stroke="none"
	d="
M413.991058,141.858658
	C408.408966,139.152313 402.826904,136.445969 397.119019,133.000748
	C398.615753,131.502518 400.218536,130.696564 401.866394,129.996765
	C403.554932,129.279694 405.287598,128.666580 407.301147,127.883560
	C408.410095,127.484421 409.218842,127.209686 410.439941,126.957268
	C412.230438,126.978745 413.608643,126.977898 415.375793,127.028702
	C420.491974,128.912689 421.462433,132.779587 419.192657,140.468094
	C417.415253,140.943268 415.703156,141.400955 413.991058,141.858658
z"/>
<path fill="#FAF42F" opacity="1.000000" stroke="none"
	d="
M33.898315,31.016445
	C30.614758,30.936279 27.075718,30.265730 25.906578,34.755352
	C21.501013,30.980423 21.300377,29.806942 24.866577,27.299492
	C27.058935,29.236177 28.487150,29.857626 30.069134,27.274265
	C30.734749,26.187328 32.408573,25.188185 33.691669,25.096655
	C40.938889,24.579664 48.206139,24.338755 55.467609,24.028276
	C58.908092,23.881170 61.460320,24.778364 60.664314,29.048374
	C59.894073,30.014343 59.458145,30.931568 59.022221,31.848793
	C58.593960,31.904701 58.165699,31.960609 57.211922,31.696806
	C53.118801,30.934647 49.551193,30.492199 45.531700,30.007774
	C41.352642,30.316013 37.625481,30.666229 33.898315,31.016445
z"/>
<path fill="#FAF42F" opacity="1.000000" stroke="none"
	d="
M338.919495,99.947968
	C335.871063,102.313133 332.822601,104.678299 329.393005,106.630386
	C328.991577,105.110153 328.971313,104.002991 328.951050,102.895828
	C331.796448,98.253174 335.901245,95.339989 342.001404,93.989761
	C345.920898,93.989670 349.021790,94.254883 352.061707,93.937073
	C354.096893,93.724304 356.045532,92.683617 358.032898,92.013390
	C360.073975,92.023796 362.115021,92.034195 364.584473,92.496567
	C365.024414,93.963806 365.035980,94.979080 364.766479,96.215752
	C364.299072,97.600929 364.112732,98.764717 363.465332,99.937042
	C358.361084,99.935287 353.717865,99.924988 349.051025,99.503487
	C348.735657,93.884293 344.750732,96.539047 342.343109,96.060410
	C339.298584,95.455154 338.843262,97.570160 338.919495,99.947968
z"/>
<path fill="#FAF42F" opacity="1.000000" stroke="none"
	d="
M366.107056,92.204269
	C369.617401,92.781494 373.167114,93.184395 376.631287,93.966270
	C391.229401,97.261177 399.774323,108.843971 409.451691,118.717834
	C408.383179,119.053116 407.663940,119.059052 406.607910,118.976715
	C404.175873,117.297173 402.080658,115.705917 399.694824,113.944885
	C396.947327,111.820335 394.490479,109.865570 391.816467,107.638893
	C388.983002,105.078934 386.424561,102.718086 383.707977,100.555984
	C383.060028,100.040268 381.884003,100.188042 380.653076,99.831558
	C378.843048,98.770210 377.359558,97.851913 375.812500,97.057358
	C372.595154,95.404945 369.344208,93.818077 366.107056,92.204269
z"/>
<path fill="#FAF42F" opacity="1.000000" stroke="none"
	d="
M135.981750,53.853500
	C129.898270,54.568924 123.824181,55.392849 117.724457,55.920372
	C116.273567,56.045853 114.736908,55.179646 113.166458,54.134285
	C113.338959,52.979603 113.584709,52.460220 113.958206,51.681747
	C114.412537,50.957695 114.739098,50.492741 115.296440,49.959610
	C115.811607,49.708027 115.997002,49.452713 116.502625,49.090923
	C118.602684,48.998283 120.283539,48.940208 122.355240,48.895149
	C127.163475,48.241573 131.580856,47.574986 135.999344,47.245377
	C136.009689,48.031574 136.018936,48.480789 136.015167,49.342072
	C135.995346,51.120594 135.988541,52.487049 135.981750,53.853500
z"/>
<path fill="#FAF42F" opacity="1.000000" stroke="none"
	d="
M272.011017,91.048409
	C272.279572,90.848412 272.548126,90.648415 272.919983,90.216156
	C273.803253,90.282928 274.583221,90.581955 275.678650,91.425789
	C275.844147,94.312935 276.124664,96.056870 279.249817,96.137856
	C280.222351,96.163063 281.148621,97.973892 281.741608,98.985779
	C280.588165,99.358475 279.789215,99.712677 278.574921,100.048347
	C276.773651,99.988831 275.387726,99.947830 273.786560,99.659737
	C272.714386,99.274582 271.857452,99.136528 270.663269,98.997055
	C269.876648,99.007469 269.427216,99.019302 268.662537,98.858162
	C264.236908,97.467789 260.126526,96.250389 255.734818,94.733536
	C252.305405,94.292450 249.157272,94.150803 246.002258,94.002251
	C245.995361,93.995354 245.978897,93.978416 245.978897,93.978416
	C247.075851,92.987343 248.071259,91.324127 249.290131,91.139992
	C252.149918,90.707947 255.116608,90.983643 258.921753,90.980423
	C261.280609,91.637726 262.950348,92.035767 264.195496,92.988670
	C266.936310,95.086220 270.850037,94.228691 272.011017,91.048409
z"/>
<path fill="#FAF42F" opacity="1.000000" stroke="none"
	d="
M60.998627,28.999630
	C61.460320,24.778364 58.908092,23.881170 55.467609,24.028276
	C48.206139,24.338755 40.938889,24.579664 33.691669,25.096655
	C32.408573,25.188185 30.734749,26.187328 30.069134,27.274265
	C28.487150,29.857626 27.058935,29.236177 25.173920,27.342796
	C26.240244,25.728979 27.256922,23.940874 28.772438,23.254990
	C31.789667,21.889467 35.081177,21.129992 38.711945,20.499214
	C40.502750,21.255968 41.835617,21.934904 43.180157,21.958855
	C48.809784,22.059141 54.442909,21.963047 60.074753,21.938904
	C63.134331,23.965523 66.193909,25.992142 69.616776,28.410736
	C69.979973,29.214926 69.979874,29.627140 69.572937,30.023327
	C66.443611,29.671408 63.721119,29.335520 60.998627,28.999630
z"/>
<path fill="#FAF42F" opacity="1.000000" stroke="none"
	d="
M197.985855,87.119003
	C195.206223,84.471680 192.426605,81.824356 189.322845,78.557587
	C188.995880,74.956917 188.993073,71.975700 188.995148,68.997238
	C189.000000,69.000000 188.994507,68.990295 189.381165,68.993591
	C191.845978,69.657585 193.924149,70.318275 196.015259,71.363823
	C198.351822,73.503174 200.675461,75.257668 202.933228,77.376587
	C201.921768,79.401428 200.758850,80.993080 200.195145,82.774361
	C200.066681,83.180313 202.009735,84.241821 203.010284,85.255424
	C203.022003,85.678627 203.022766,85.848000 202.627625,86.011497
	C200.816422,86.376740 199.401138,86.747871 197.985855,87.119003
z"/>
<path fill="#FAF42F" opacity="1.000000" stroke="none"
	d="
M122.003120,39.982811
	C122.959549,39.195908 123.915977,38.409004 125.361115,37.308083
	C127.213623,36.648338 128.577423,36.302616 130.408691,35.984756
	C137.591965,35.344181 144.307755,34.675747 151.340591,34.044914
	C152.110779,34.711830 152.563919,35.341152 152.659576,36.053375
	C150.209564,36.768295 148.117065,37.400311 145.570282,38.020233
	C142.578415,38.008141 140.040817,38.008141 137.263931,38.008141
	C137.151367,40.119602 137.075150,41.549038 136.573242,42.997253
	C131.441956,43.398808 126.736374,43.781582 122.014420,43.910538
	C122.002258,43.487202 122.006470,43.317684 122.009796,42.752499
	C122.006981,41.565487 122.005051,40.774151 122.003120,39.982811
z"/>
<path fill="#FAF42F" opacity="1.000000" stroke="none"
	d="
M414.371643,141.935638
	C415.703156,141.400955 417.415253,140.943268 419.192657,140.468094
	C421.462433,132.779587 420.491974,128.912689 415.385071,126.664139
	C415.967804,125.470985 416.930267,124.694046 417.892731,123.917107
	C422.035797,125.789986 425.580750,127.961037 427.516632,132.655655
	C429.318054,137.024277 428.513397,140.663834 424.046570,141.973099
	C420.966675,142.875854 417.859650,144.682037 414.371643,141.935638
z"/>
<path fill="#FAF42F" opacity="1.000000" stroke="none"
	d="
M183.099518,48.963600
	C186.331146,51.741329 189.562775,54.519058 192.390747,57.648735
	C189.305389,57.138142 186.623657,56.275597 183.467072,55.260315
	C183.065353,59.122688 182.551788,64.060341 182.024780,68.998611
	C182.011337,68.999245 182.003769,69.018898 181.625610,69.012238
	C179.830902,67.043404 178.549362,64.961433 176.951309,63.160267
	C175.847473,61.916149 174.306259,61.060085 172.721664,59.854675
	C172.395187,59.110126 172.307541,58.541512 172.650879,57.979225
	C177.095276,58.498096 179.924255,57.769062 179.019974,52.682262
	C178.446671,49.457462 180.393097,48.728962 183.099518,48.963600
z"/>
<path fill="#FAF42F" opacity="1.000000" stroke="none"
	d="
M407.000946,128.007965
	C405.287598,128.666580 403.554932,129.279694 401.866394,129.996765
	C400.218536,130.696564 398.615753,131.502518 396.960876,132.678375
	C388.025116,128.285263 379.121674,123.475632 370.145996,117.994431
	C370.424500,116.482384 370.775269,115.641907 371.481140,114.881485
	C373.876953,115.596992 375.917633,116.232445 378.318481,116.920425
	C380.785614,118.315475 382.892609,119.658012 385.025940,121.390793
	C386.695435,122.525238 388.338654,123.269440 390.001892,124.375320
	C390.807831,129.299011 393.944611,128.549240 397.414734,127.870049
	C398.481720,127.889503 399.192535,127.890114 400.346375,127.925125
	C402.859955,127.975685 404.930450,127.991837 407.000946,128.007965
z"/>
<path fill="#FAF42F" opacity="1.000000" stroke="none"
	d="
M182.038239,68.997986
	C182.551788,64.060341 183.065353,59.122688 183.467072,55.260315
	C186.623657,56.275597 189.305389,57.138142 192.414261,57.997612
	C194.163177,59.090588 195.484955,60.186634 196.877487,61.979553
	C195.410431,63.784073 193.835373,64.844345 192.346680,66.014503
	C191.174088,66.936195 190.107941,67.993324 188.994507,68.990295
	C188.994507,68.990295 189.000000,69.000000 188.560059,68.998466
	C186.092819,68.997284 184.065536,68.997635 182.038239,68.997986
z"/>
<path fill="#FAF42F" opacity="1.000000" stroke="none"
	d="
M328.575623,102.951447
	C328.971313,104.002991 328.991577,105.110153 329.028320,106.633415
	C329.044830,107.049515 329.026154,107.041115 328.585297,107.027100
	C324.881958,107.854630 319.862579,104.687630 319.006012,111.018417
	C319.006012,111.018417 319.027802,111.037292 318.567352,111.027145
	C314.415009,111.013420 310.723145,111.009834 307.008942,110.619049
	C305.679291,105.783195 301.948730,107.360855 298.994995,107.002518
	C298.999084,106.988373 298.998962,106.958908 298.930115,106.598747
	C296.547394,104.830177 294.011536,103.564476 294.955505,100.042007
	C295.002045,99.992630 295.093781,99.892593 295.093781,99.892593
	C301.399109,102.800064 307.498474,106.739830 314.792236,105.989227
	C319.315948,105.523689 323.734467,104.035965 328.575623,102.951447
z"/>
<path fill="#FAF42F" opacity="1.000000" stroke="none"
	d="
M115.065666,50.027786
	C114.739098,50.492741 114.412537,50.957695 113.587448,51.644226
	C108.987213,49.814392 104.892303,48.121223 100.904953,52.096977
	C99.513885,51.720409 98.122810,51.343842 96.365021,50.501869
	C96.738518,45.313164 92.136391,45.216751 90.356255,43.025742
	C92.519142,42.325829 94.263512,41.638916 96.007881,40.952007
	C98.082939,41.633312 100.157990,42.314613 102.621010,43.372986
	C104.827820,44.501564 106.608406,45.748810 108.474136,45.892765
	C111.565117,46.131260 114.446198,46.093739 115.065666,50.027786
z"/>
<path fill="#FAF42F" opacity="1.000000" stroke="none"
	d="
M365.835968,92.150146
	C369.344208,93.818077 372.595154,95.404945 375.812500,97.057358
	C377.359558,97.851913 378.843048,98.770210 380.661621,100.269691
	C380.975311,103.249245 380.982758,105.591568 380.566956,107.941650
	C378.458435,107.931900 376.773163,107.914383 375.053589,107.512024
	C373.351685,106.402702 371.684052,105.678223 370.013123,104.562073
	C369.338440,102.778481 368.667053,101.386543 367.997925,99.996994
	C368.000183,99.999390 368.005127,100.004158 368.006592,99.614777
	C367.021179,98.148376 366.034363,97.071365 365.047546,95.994354
	C365.035980,94.979080 365.024414,93.963806 365.016266,92.568024
	C365.201447,92.157013 365.383179,92.126518 365.835968,92.150146
z"/>
<path fill="#FAF42F" opacity="1.000000" stroke="none"
	d="
M183.044464,48.597740
	C180.393097,48.728962 178.446671,49.457462 179.019974,52.682262
	C179.924255,57.769062 177.095276,58.498096 172.560333,57.766060
	C172.038803,57.546570 171.916245,57.100842 171.941437,56.651852
	C171.968719,53.809437 171.970810,51.416016 171.986786,48.625648
	C172.998764,45.539078 173.996872,42.849457 174.994995,40.159836
	C177.659805,42.850517 180.324615,45.541203 183.044464,48.597740
z"/>
<path fill="#FAF42F" opacity="1.000000" stroke="none"
	d="
M146.024567,38.032326
	C148.117065,37.400311 150.209564,36.768295 153.041031,36.064564
	C155.494812,35.725529 157.209625,35.458206 158.955734,35.561035
	C160.322769,36.611851 161.658493,37.292515 162.995300,38.373482
	C161.989487,40.539227 160.982574,42.304676 159.585846,44.053680
	C158.416534,44.076031 157.637039,44.114819 156.463135,44.102097
	C153.985291,44.407925 151.901855,44.765266 149.818420,45.122608
	C149.449493,45.086155 149.080566,45.049702 148.139801,44.890854
	C147.022766,44.443901 146.477539,44.119347 145.952957,43.389908
	C145.990585,41.334126 146.007568,39.683224 146.024567,38.032326
z"/>
<path fill="#FAF42F" opacity="1.000000" stroke="none"
	d="
M283.907654,114.051895
	C277.107117,108.726944 268.686646,108.102638 260.638611,105.765778
	C263.004852,104.361755 265.483368,103.263611 268.206909,102.121262
	C268.451935,102.077065 268.947235,102.127632 269.107086,102.433182
	C272.511597,104.116508 275.756287,105.494286 279.394897,106.923203
	C282.593750,108.279243 285.398682,109.584167 288.033386,111.212906
	C286.544678,112.375114 285.226166,113.213501 283.907654,114.051895
z"/>
<path fill="#FAF42F" opacity="1.000000" stroke="none"
	d="
M268.738037,84.652229
	C264.234985,85.361122 259.585236,85.702255 254.186890,85.730942
	C245.303284,85.638748 237.168274,85.858986 228.624451,86.063278
	C226.127777,85.346794 224.039932,84.646263 221.952103,83.945740
	C224.593033,83.971771 227.237503,84.098457 229.874222,84.005211
	C238.241409,83.709282 246.604324,83.124603 254.971710,83.067764
	C259.508606,83.036942 264.051270,83.851334 268.738037,84.652229
z"/>
<path fill="#FAF42F" opacity="1.000000" stroke="none"
	d="
M89.937737,43.038746
	C92.136391,45.216751 96.738518,45.313164 95.997482,50.428612
	C88.676636,49.322357 81.757126,47.169914 78.107941,39.177456
	C78.798157,38.023304 79.404076,37.506355 80.366714,37.039307
	C81.699715,37.884380 83.319763,38.533768 83.538666,39.500450
	C84.397911,43.294830 87.151375,43.069744 89.937737,43.038746
z"/>
<path fill="#FAF42F" opacity="1.000000" stroke="none"
	d="
M267.961914,102.165459
	C265.483368,103.263611 263.004852,104.361755 260.239288,105.688568
	C256.608368,105.616730 253.264450,105.316216 249.455414,104.747108
	C248.962845,104.281822 248.935410,104.085136 249.072479,103.617935
	C250.145081,102.201378 251.053177,101.055344 252.361481,99.895462
	C253.813385,99.758377 254.865082,99.635139 256.357025,99.619995
	C260.518829,100.540550 264.240356,101.353004 267.961914,102.165459
z"/>
<path fill="#FAF42F" opacity="1.000000" stroke="none"
	d="
M203.023544,86.017380
	C203.022766,85.848000 203.022003,85.678627 203.014160,84.847565
	C203.137833,82.912430 203.268600,81.638985 203.399368,80.365540
	C203.706573,80.732307 204.013779,81.099075 204.320999,81.465836
	C207.231964,80.047241 210.142929,78.628647 213.319794,77.153961
	C213.763229,77.061775 213.940750,77.025688 214.118286,76.989594
	C215.077652,78.056213 216.037018,79.122833 216.932495,80.780167
	C216.609238,81.890221 216.349854,82.409569 216.090469,82.928917
	C216.090469,82.928917 216.067444,83.070763 215.666962,83.090721
	C213.574585,85.208305 208.952148,83.548393 208.885361,88.202995
	C208.144730,88.634880 207.577560,88.815887 206.742355,88.815994
	C205.324051,87.762527 204.173798,86.889954 203.023544,86.017380
z"/>
<path fill="#FAF42F" opacity="1.000000" stroke="none"
	d="
M159.975677,44.070122
	C160.982574,42.304676 161.989487,40.539227 163.026047,38.038002
	C164.043793,35.592022 165.031876,33.881824 166.019958,32.171623
	C166.960999,32.591854 167.902054,33.012081 168.952179,34.175838
	C169.045471,39.198120 169.805511,43.674076 165.648132,46.847103
	C163.526962,45.827560 161.751328,44.948841 159.975677,44.070122
z"/>
<path fill="#FAF42F" opacity="1.000000" stroke="none"
	d="
M151.023544,34.007317
	C144.307755,34.675747 137.591965,35.344181 130.713959,35.708374
	C133.480637,35.163425 136.409546,34.922718 139.641571,34.657104
	C139.780396,33.017933 139.902405,31.577187 140.024414,30.136442
	C146.367645,29.778765 152.710876,29.421089 159.505020,29.329445
	C159.955933,29.595478 159.932068,29.988935 159.500549,29.993114
	C156.150696,30.859423 151.160004,27.563721 151.023544,34.007317
z"/>
<path fill="#FAF42F" opacity="1.000000" stroke="none"
	d="
M159.585846,44.053680
	C161.751328,44.948841 163.526962,45.827560 165.657852,47.222233
	C167.080673,52.430710 170.138885,47.886497 171.972916,49.022591
	C171.970810,51.416016 171.968719,53.809437 171.560425,56.624458
	C168.730469,56.042366 166.306702,55.038677 163.882935,54.034988
	C163.553146,53.993992 163.295410,53.835682 163.043182,52.947212
	C160.936920,49.607441 158.897232,46.880524 156.857544,44.153610
	C157.637039,44.114819 158.416534,44.076031 159.585846,44.053680
z"/>
<path fill="#FAF42F" opacity="1.000000" stroke="none"
	d="
M90.356255,43.025742
	C87.151375,43.069744 84.397911,43.294830 83.538666,39.500450
	C83.319763,38.533768 81.699715,37.884380 80.362961,36.705589
	C80.006279,35.876846 80.010078,35.431717 80.013870,34.986588
	C85.234802,36.769016 90.455742,38.551441 95.842278,40.642937
	C94.263512,41.638916 92.519142,42.325829 90.356255,43.025742
z"/>
<path fill="#FAF42F" opacity="1.000000" stroke="none"
	d="
M248.907974,103.888443
	C248.935410,104.085136 248.962845,104.281822 249.042267,104.771790
	C249.094238,105.065063 249.084137,105.001144 248.744354,105.134766
	C244.235748,105.991508 240.039932,106.593758 235.915680,107.516129
	C234.774002,107.771461 233.845154,108.978447 232.818665,109.748817
	C230.296127,108.738403 227.773575,107.727989 225.210861,106.166130
	C225.445465,105.385315 225.720245,105.155937 226.462036,104.953033
	C228.745560,105.000061 230.568268,105.125214 232.377258,105.018295
	C235.620193,104.826637 239.585144,105.554932 241.907944,103.953979
	C244.803329,101.958382 246.570633,102.659828 248.907974,103.888443
z"/>
<path fill="#FAF42F" opacity="1.000000" stroke="none"
	d="
M171.986786,48.625648
	C170.138885,47.886497 167.080673,52.430710 166.003357,47.363056
	C169.805511,43.674076 169.045471,39.198120 169.063293,34.475067
	C170.832596,35.963165 172.599869,37.895569 174.681061,39.993904
	C173.996872,42.849457 172.998764,45.539078 171.986786,48.625648
z"/>
<path fill="#FAF42F" opacity="1.000000" stroke="none"
	d="
M60.664314,29.048374
	C63.721119,29.335520 66.443611,29.671408 69.579529,30.418041
	C68.705742,35.250549 73.965050,35.026150 74.960373,37.827972
	C69.886391,35.885143 64.812408,33.942314 59.380322,31.924141
	C59.458145,30.931568 59.894073,30.014343 60.664314,29.048374
z"/>
<path fill="#FAF42F" opacity="1.000000" stroke="none"
	d="
M59.910660,21.604149
	C54.442909,21.963047 48.809784,22.059141 43.180157,21.958855
	C41.835617,21.934904 40.502750,21.255968 39.087086,20.481133
	C44.454533,15.686860 50.222099,18.820147 55.847244,19.465284
	C57.198219,19.620224 58.449463,20.644773 59.910660,21.604149
z"/>
<path fill="#FAF42F" opacity="1.000000" stroke="none"
	d="
M342.761322,107.826195
	C346.535767,107.573914 350.310211,107.321640 354.987274,107.070602
	C359.260254,107.724922 362.630615,108.378006 365.958893,109.378876
	C364.888367,110.503723 363.859955,111.280792 362.831512,112.057861
	C360.145996,111.689224 357.460510,111.320587 354.176392,110.575241
	C349.972290,109.407753 346.366791,108.616974 342.761322,107.826195
z"/>
<path fill="#FAF42F" opacity="1.000000" stroke="none"
	d="
M282.096069,98.967278
	C281.148621,97.973892 280.222351,96.163063 279.249817,96.137856
	C276.124664,96.056870 275.844147,94.312935 275.975952,91.559959
	C282.195435,93.869179 288.433014,96.589043 294.882202,99.600754
	C295.093781,99.892593 295.002045,99.992630 294.535889,100.008369
	C292.369476,100.019127 290.669220,100.014145 288.578186,99.998589
	C286.156982,99.647766 284.126526,99.307526 282.096069,98.967278
z"/>
<path fill="#FAF42F" opacity="1.000000" stroke="none"
	d="
M299.139709,113.963966
	C299.989899,114.794533 300.840088,115.625099 301.767609,116.752350
	C301.267059,117.507988 300.689209,117.966934 299.691345,118.738464
	C298.492767,119.299034 297.714203,119.547035 296.935608,119.795044
	C296.552155,119.773224 296.168671,119.751419 295.474060,119.271164
	C293.475464,117.398209 291.787994,115.983688 289.182556,113.799667
	C289.186737,113.864571 289.095367,112.449623 289.406403,111.001373
	C292.833954,111.689957 295.859039,112.411850 298.937622,113.344513
	C298.991058,113.555283 299.139709,113.963966 299.139709,113.963966
z"/>
<path fill="#FAF42F" opacity="1.000000" stroke="none"
	d="
M407.301147,127.883575
	C404.930450,127.991837 402.859955,127.975685 400.411865,127.600899
	C400.709839,125.842133 401.385376,124.442001 402.373657,122.892258
	C404.105835,121.516754 405.525299,120.290871 406.944733,119.064987
	C407.663940,119.059052 408.383179,119.053116 409.461884,119.057724
	C409.821381,119.068275 409.949158,119.490601 409.985229,120.146591
	C410.023438,122.846703 410.025543,124.890823 410.027618,126.934944
	C409.218842,127.209686 408.410095,127.484421 407.301147,127.883575
z"/>
<path fill="#FAF42F" opacity="1.000000" stroke="none"
	d="
M75.261932,37.968597
	C73.965050,35.026150 68.705742,35.250549 69.986359,30.434071
	C69.979874,29.627140 69.979973,29.214926 69.970581,28.494049
	C73.267601,30.220078 76.574097,32.254768 79.947235,34.638023
	C80.010078,35.431717 80.006279,35.876846 80.006233,36.655689
	C79.404076,37.506355 78.798157,38.023304 78.064949,38.816563
	C77.146263,38.764988 76.354874,38.437107 75.261932,37.968597
z"/>
<path fill="#FAF42F" opacity="1.000000" stroke="none"
	d="
M217.055466,95.974289
	C219.771088,95.318909 222.486694,94.663536 225.674133,94.380356
	C227.574524,95.172516 229.122375,95.374374 230.398773,96.072525
	C231.729294,96.800270 232.798080,98.006554 233.519989,99.016754
	C228.688904,99.342834 224.319122,99.655769 219.758453,99.970978
	C219.567551,99.973244 219.185715,99.974892 219.185715,99.974892
	C218.645477,99.343147 218.105240,98.711395 217.281494,97.635574
	C217.017151,96.785767 217.036316,96.380035 217.055466,95.974289
z"/>
<path fill="#FAF42F" opacity="1.000000" stroke="none"
	d="
M233.254150,109.842369
	C233.845154,108.978447 234.774002,107.771461 235.915680,107.516129
	C240.039932,106.593758 244.235748,105.991508 248.774918,105.145584
	C248.639923,109.574623 242.461761,112.337570 236.401382,110.715721
	C235.492981,110.472610 234.593338,110.196671 233.254150,109.842369
z"/>
<path fill="#FAF42F" opacity="1.000000" stroke="none"
	d="
M202.627625,86.011497
	C204.173798,86.889954 205.324051,87.762527 206.959961,89.117371
	C207.963989,91.472672 208.482361,93.345688 209.000748,95.218704
	C205.418961,92.729828 201.837158,90.240959 198.120605,87.435539
	C199.401138,86.747871 200.816422,86.376740 202.627625,86.011497
z"/>
<path fill="#FAF42F" opacity="1.000000" stroke="none"
	d="
M101.078323,52.431503
	C104.892303,48.121223 108.987213,49.814392 113.459686,51.903320
	C113.584709,52.460220 113.338959,52.979603 112.974274,53.772827
	C108.851265,54.853695 104.729546,56.726856 101.078323,52.431503
z"/>
<path fill="#FAF42F" opacity="1.000000" stroke="none"
	d="
M182.024780,68.998611
	C184.065536,68.997635 186.092819,68.997284 188.555206,68.995712
	C188.993073,71.975700 188.995880,74.956917 188.998871,78.380661
	C186.998703,77.150986 184.998337,75.478798 182.866547,73.215027
	C182.459854,72.422585 182.184586,72.221718 181.909317,72.020859
	C181.909317,72.020859 181.983887,72.028305 181.996094,71.677368
	C182.006805,70.557251 182.005295,69.788071 182.003784,69.018898
	C182.003769,69.018898 182.011337,68.999245 182.024780,68.998611
z"/>
<path fill="#FAF42F" opacity="1.000000" stroke="none"
	d="
M209.164597,95.534286
	C208.482361,93.345688 207.963989,91.472672 207.228012,89.298264
	C207.577560,88.815887 208.144730,88.634880 209.152100,88.436378
	C211.048859,89.294174 212.505402,90.169472 213.961945,91.044769
	C214.887390,92.495064 215.812836,93.945358 216.896881,95.684982
	C217.036316,96.380035 217.017151,96.785767 216.999329,97.495987
	C214.443237,97.150261 211.885849,96.500061 209.164597,95.534286
z"/>
<path fill="#FAF42F" opacity="1.000000" stroke="none"
	d="
M145.932327,43.794792
	C146.477539,44.119347 147.022766,44.443901 147.861008,44.891308
	C147.352966,45.672585 146.551910,46.331013 145.063477,47.143517
	C141.593460,47.841732 138.810822,48.385868 136.028183,48.930000
	C136.018936,48.480789 136.009689,48.031574 136.109497,46.960705
	C136.485214,45.584084 136.751877,44.829117 137.465485,44.065285
	C140.585724,43.969208 143.259018,43.882000 145.932327,43.794792
z"/>
<path fill="#FAF42F" opacity="1.000000" stroke="none"
	d="
M156.463135,44.102097
	C158.897232,46.880524 160.936920,49.607441 162.949768,52.734131
	C158.594940,50.703575 154.266953,48.273247 149.878693,45.482765
	C151.901855,44.765266 153.985291,44.407925 156.463135,44.102097
z"/>
<path fill="#FAF42F" opacity="1.000000" stroke="none"
	d="
M139.654755,30.201805
	C139.902405,31.577187 139.780396,33.017933 139.641571,34.657104
	C136.409546,34.922718 133.480637,35.163425 130.246475,35.680511
	C128.577423,36.302616 127.213623,36.648338 125.489182,37.017929
	C126.600250,35.812679 127.894318,34.171566 129.582199,33.443810
	C132.694458,32.101913 136.037949,31.296259 139.654755,30.201805
z"/>
<path fill="#FAF42F" opacity="1.000000" stroke="none"
	d="
M181.625610,69.012238
	C182.005295,69.788071 182.006805,70.557251 181.978607,71.710503
	C178.977615,69.665703 176.006302,67.236816 173.005280,64.050186
	C172.970535,62.205158 172.965515,61.117886 172.960495,60.030609
	C174.306259,61.060085 175.847473,61.916149 176.951309,63.160267
	C178.549362,64.961433 179.830902,67.043404 181.625610,69.012238
z"/>
<path fill="#FAF42F" opacity="1.000000" stroke="none"
	d="
M115.296440,49.959610
	C114.446198,46.093739 111.565117,46.131260 108.474136,45.892765
	C106.608406,45.748810 104.827820,44.501564 102.994186,43.332932
	C103.701935,42.605808 104.424477,42.295815 105.659897,42.271645
	C107.060570,42.734444 107.948364,42.911427 109.050583,43.375267
	C110.449165,43.754284 111.633324,43.846439 113.223618,43.966076
	C114.443100,44.027683 115.256439,44.061813 116.042160,44.416649
	C116.022263,45.167336 116.029984,45.597328 116.019730,46.414436
	C116.028969,47.576199 116.056183,48.350845 116.083405,49.125488
	C115.997002,49.452713 115.811607,49.708027 115.296440,49.959610
z"/>
<path fill="#FAF42F" opacity="1.000000" stroke="none"
	d="
M45.983589,30.049751
	C49.551193,30.492199 53.118801,30.934647 56.888042,31.722633
	C53.991096,35.994400 50.340786,33.702538 46.416988,32.549774
	C45.997452,31.430586 45.990520,30.740168 45.983589,30.049751
z"/>
<path fill="#FAF42F" opacity="1.000000" stroke="none"
	d="
M136.015167,49.342072
	C138.810822,48.385868 141.593460,47.841732 144.732727,47.170319
	C145.711884,50.982529 142.918411,53.320950 136.375092,53.930992
	C135.988541,52.487049 135.995346,51.120594 136.015167,49.342072
z"/>
<path fill="#FAF42F" opacity="1.000000" stroke="none"
	d="
M189.381165,68.993591
	C190.107941,67.993324 191.174088,66.936195 192.346680,66.014503
	C193.835373,64.844345 195.410431,63.784073 197.001984,62.288914
	C197.334656,62.087830 197.613617,62.274258 197.961060,63.081703
	C198.034851,64.442635 198.040161,65.182556 198.023193,66.286316
	C197.334717,68.093102 196.668518,69.536034 196.002319,70.978973
	C193.924149,70.318275 191.845978,69.657585 189.381165,68.993591
z"/>
<path fill="#FAF42F" opacity="1.000000" stroke="none"
	d="
M159.932068,29.988935
	C159.932068,29.988935 159.955933,29.595478 159.960419,29.398510
	C161.743103,30.133621 163.521332,31.065702 165.659760,32.084705
	C165.031876,33.881824 164.043793,35.592022 163.024963,37.637703
	C161.658493,37.292515 160.322769,36.611851 159.238129,35.282158
	C159.636856,33.085068 159.784454,31.537003 159.932068,29.988935
z"/>
<path fill="#FAF42F" opacity="1.000000" stroke="none"
	d="
M362.981812,112.363365
	C363.859955,111.280792 364.888367,110.503723 366.284302,109.342285
	C367.086731,108.984566 367.521667,109.011200 368.093048,109.347382
	C369.195007,111.371750 370.160553,113.086594 371.126068,114.801437
	C370.775269,115.641907 370.424500,116.482384 370.012970,117.658997
	C367.678833,116.219704 365.405457,114.444290 362.981812,112.363365
z"/>
<path fill="#FAF42F" opacity="1.000000" stroke="none"
	d="
M357.788177,91.672867
	C356.045532,92.683617 354.096893,93.724304 352.061707,93.937073
	C349.021790,94.254883 345.920898,93.989670 342.373444,93.953339
	C346.784760,91.080795 352.033325,90.420250 357.788177,91.672867
z"/>
<path fill="#FAF42F" opacity="1.000000" stroke="none"
	d="
M213.978424,76.670464
	C213.940750,77.025688 213.763229,77.061775 212.928528,77.085899
	C210.185150,76.366730 208.098938,75.659538 206.009277,74.556488
	C205.997971,73.104660 205.990128,72.048691 205.998093,70.645569
	C206.036606,69.836006 206.059311,69.373611 206.082001,68.911217
	C208.667526,71.391258 211.253052,73.871292 213.978424,76.670464
z"/>
<path fill="#FAF42F" opacity="1.000000" stroke="none"
	d="
M289.003967,111.034683
	C289.095367,112.449623 289.186737,113.864571 289.182556,113.799667
	C291.787994,115.983688 293.475464,117.398209 295.193939,119.198929
	C291.564728,117.945694 287.904510,116.306274 284.075989,114.359375
	C285.226166,113.213501 286.544678,112.375114 288.235382,111.233864
	C288.607574,110.931000 289.003967,111.034683 289.003967,111.034683
z"/>
<path fill="#FAF42F" opacity="1.000000" stroke="none"
	d="
M172.721664,59.854675
	C172.965515,61.117886 172.970535,62.205158 172.957672,63.700310
	C170.024002,60.953930 167.108200,57.799675 164.037674,54.340202
	C166.306702,55.038677 168.730469,56.042366 171.535248,57.073448
	C171.916245,57.100842 172.038803,57.546570 172.129349,57.759735
	C172.307541,58.541512 172.395187,59.110126 172.721664,59.854675
z"/>
<path fill="#FAF42F" opacity="1.000000" stroke="none"
	d="
M216.369080,83.122726
	C216.349854,82.409569 216.609238,81.890221 216.975677,81.099121
	C218.498672,81.762672 219.914642,82.697983 221.641357,83.789513
	C224.039932,84.646263 226.127777,85.346794 228.610443,86.371628
	C228.977859,87.107689 228.950424,87.519455 228.922989,87.931221
	C223.887054,88.904541 220.014267,86.783836 216.369080,83.122726
z"/>
<path fill="#FAF42F" opacity="1.000000" stroke="none"
	d="
M410.439941,126.957268
	C410.025543,124.890823 410.023438,122.846703 410.031616,120.362274
	C412.547455,121.057304 415.053009,122.192650 417.725647,123.622543
	C416.930267,124.694046 415.967804,125.470985 414.996094,126.612488
	C413.608643,126.977898 412.230438,126.978745 410.439941,126.957268
z"/>
<path fill="#FAF42F" opacity="1.000000" stroke="none"
	d="
M45.531700,30.007774
	C45.990520,30.740168 45.997452,31.430586 46.007889,32.466652
	C42.090393,32.460125 38.169392,32.107948 34.073349,31.386108
	C37.625481,30.666229 41.352642,30.316013 45.531700,30.007774
z"/>
<path fill="#FAF42F" opacity="1.000000" stroke="none"
	d="
M342.436920,107.850250
	C346.366791,108.616974 349.972290,109.407753 353.760254,110.509140
	C349.510101,110.275658 345.077515,109.731560 340.257507,109.030640
	C340.617584,108.540649 341.365051,108.207481 342.436920,107.850250
z"/>
<path fill="#FAF42F" opacity="1.000000" stroke="none"
	d="
M205.933228,68.599564
	C206.059311,69.373611 206.036606,69.836006 205.626282,70.637955
	C202.840927,69.292488 200.443207,67.607483 198.045471,65.922470
	C198.040161,65.182556 198.034851,64.442635 198.017914,63.332886
	C200.598999,64.737999 203.191727,66.512955 205.933228,68.599564
z"/>
<path fill="#FAF42F" opacity="1.000000" stroke="none"
	d="
M219.203339,100.305237
	C219.185715,99.974892 219.567551,99.973244 220.190628,99.984299
	C224.626846,99.447258 226.720383,100.705994 225.995026,104.926575
	C225.720245,105.155937 225.445465,105.385315 225.046738,105.856430
	C223.022171,104.277306 221.121567,102.456444 219.203339,100.305237
z"/>
<path fill="none" opacity="1.000000" stroke="none"
	d="
M108.836159,43.088409
	C107.948364,42.911427 107.060570,42.734444 105.984070,42.266899
	C108.920860,41.344112 112.046349,40.711891 115.582222,40.462566
	C115.988266,41.552307 115.983932,42.259148 115.607956,43.013947
	C114.488541,43.108784 113.740761,43.155666 112.580818,43.145798
	C111.057831,43.088833 109.946991,43.088623 108.836159,43.088409
z"/>
<path fill="#FAF42F" opacity="1.000000" stroke="none"
	d="
M121.975281,39.658707
	C122.005051,40.774151 122.006981,41.565487 121.642899,42.749542
	C120.544548,43.128101 119.812218,43.113941 119.059402,42.705429
	C119.035965,41.262608 119.033005,40.214138 119.030045,39.165665
	C120.002510,39.221977 120.974968,39.278290 121.975281,39.658707
z"/>
<path fill="#FAF42F" opacity="1.000000" stroke="none"
	d="
M118.705292,39.196533
	C119.033005,40.214138 119.035965,41.262608 119.043335,42.691147
	C119.047737,43.071213 119.063499,43.038361 118.677849,43.028431
	C117.521332,43.000999 116.750458,42.983494 115.979591,42.965992
	C115.983932,42.259148 115.988266,41.552307 115.987427,40.493195
	C116.781670,39.836418 117.581100,39.531910 118.705292,39.196533
z"/>
<path fill="none" opacity="1.000000" stroke="none"
	d="
M297.283997,119.899429
	C297.714203,119.547035 298.492767,119.299034 299.585754,119.002464
	C299.144257,119.303871 298.388306,119.653847 297.283997,119.899429
z"/>
<path fill="#FAF42F" opacity="1.000000" stroke="none"
	d="
M181.965622,72.285416
	C182.184586,72.221718 182.459854,72.422585 182.817322,72.870056
	C182.606995,72.927773 182.314453,72.738876 181.965622,72.285416
z"/>
<path fill="#FAF42F" opacity="1.000000" stroke="none"
	d="
M229.395752,87.992188
	C228.950424,87.519455 228.977859,87.107689 229.019287,86.387573
	C237.168274,85.858986 245.303284,85.638748 253.725037,85.701096
	C252.251404,86.633476 250.511627,87.769554 248.726913,87.845207
	C242.449112,88.111328 236.155884,88.013123 229.395752,87.992188
z"/>
<path fill="#FAF42F" opacity="1.000000" stroke="none"
	d="
M233.981293,99.003616
	C232.798080,98.006554 231.729294,96.800270 230.398773,96.072525
	C229.122375,95.374374 227.574524,95.172516 226.061859,94.375671
	C232.334137,93.992546 238.690552,93.986290 245.512924,93.979233
	C245.978897,93.978416 245.995361,93.995354 245.999573,94.331512
	C246.001892,95.106949 246.000015,95.546227 245.997681,95.992783
	C245.997238,96.000069 245.985352,95.997841 245.534225,95.997452
	C242.973267,96.001228 240.785416,95.672890 238.784744,96.142296
	C237.696777,96.397552 236.926880,98.008446 235.674988,99.018646
	C234.884720,99.020805 234.433014,99.012207 233.981293,99.003616
z"/>
<path fill="#FAF42F" opacity="1.000000" stroke="none"
	d="
M271.583313,91.033035
	C270.850037,94.228691 266.936310,95.086220 264.195496,92.988670
	C262.950348,92.035767 261.280609,91.637726 259.382935,90.975327
	C260.052490,87.981140 263.012726,87.060898 265.524902,88.614594
	C267.240875,89.675850 269.267731,90.234375 271.583313,91.033035
z"/>
<path fill="#FAF42F" opacity="1.000000" stroke="none"
	d="
M214.015015,90.670959
	C212.505402,90.169472 211.048859,89.294174 209.325577,88.185493
	C208.952148,83.548393 213.574585,85.208305 215.631714,83.153336
	C215.354004,85.563042 214.711044,87.930092 214.015015,90.670959
z"/>
<path fill="#FAF42F" opacity="1.000000" stroke="none"
	d="
M367.956635,109.037842
	C367.521667,109.011200 367.086731,108.984566 366.326355,108.994507
	C362.630615,108.378006 359.260254,107.724922 355.444092,107.039124
	C353.570312,106.338127 352.129974,105.088913 350.716858,105.118973
	C347.484283,105.187714 346.680023,103.681816 347.329407,100.458145
	C348.141052,99.977722 348.607849,99.946205 349.074615,99.914688
	C353.717865,99.924988 358.361084,99.935287 363.874512,99.965759
	C365.831482,99.992004 366.918304,99.998077 368.005127,100.004150
	C368.005127,100.004158 368.000183,99.999390 368.001709,100.393013
	C368.674255,102.175674 369.345306,103.564705 370.016388,104.953735
	C371.684052,105.678223 373.351685,106.402702 374.685486,107.540588
	C372.219971,108.315269 370.088318,108.676552 367.956635,109.037842
z"/>
<path fill="#FAF42F" opacity="1.000000" stroke="none"
	d="
M299.597107,113.976578
	C299.139709,113.963966 298.991058,113.555283 298.989105,113.281410
	C298.987152,113.007538 299.088409,112.880249 299.418884,112.739029
	C302.176666,112.067299 304.603973,111.536774 307.031250,111.006248
	C310.723145,111.009834 314.415009,111.013420 318.570068,111.041313
	C319.230713,113.971672 317.322235,114.044197 315.197693,114.020409
	C310.150482,113.963898 305.102264,113.994049 299.597107,113.976578
z"/>
<path fill="#FAF42F" opacity="1.000000" stroke="none"
	d="
M349.051025,99.503487
	C348.607849,99.946205 348.141052,99.977722 347.324463,100.034668
	C344.591034,100.040306 342.207397,100.020508 339.371643,99.974335
	C338.843262,97.570160 339.298584,95.455154 342.343109,96.060410
	C344.750732,96.539047 348.735657,93.884293 349.051025,99.503487
z"/>
<path fill="#FAF42F" opacity="1.000000" stroke="none"
	d="
M319.443542,111.026222
	C319.862579,104.687630 324.881958,107.854630 328.586487,107.034950
	C327.022003,110.780487 323.785614,111.675583 319.443542,111.026222
z"/>
<path fill="#FAF42F" opacity="1.000000" stroke="none"
	d="
M368.006592,99.614769
	C366.918304,99.998077 365.831482,99.992004 364.335510,99.957214
	C364.112732,98.764717 364.299072,97.600929 364.766479,96.215744
	C366.034363,97.071365 367.021179,98.148376 368.006592,99.614769
z"/>
<path fill="#FAF42F" opacity="1.000000" stroke="none"
	d="
M380.990204,107.933884
	C380.982758,105.591568 380.975311,103.249245 380.959351,100.468788
	C381.884003,100.188042 383.060028,100.040268 383.707977,100.555984
	C386.424561,102.718086 388.983002,105.078934 391.804535,107.990044
	C391.673157,109.417923 391.336609,110.222740 390.567993,111.020866
	C387.087341,109.987411 384.038788,108.960648 380.990204,107.933884
z"/>
<path fill="#FAF42F" opacity="1.000000" stroke="none"
	d="
M391.000031,111.027565
	C391.336609,110.222740 391.673157,109.417923 392.021667,108.261948
	C394.490479,109.865570 396.947327,111.820335 399.697144,114.339523
	C400.080414,117.069473 400.246002,119.289574 396.703796,118.915054
	C394.948761,118.858749 393.486603,118.922714 392.017639,118.614960
	C392.006409,117.499725 392.002045,116.756195 391.961670,115.647545
	C391.617126,113.864136 391.308563,112.445854 391.000031,111.027565
z"/>
<path fill="#FAF42F" opacity="1.000000" stroke="none"
	d="
M396.996674,119.035324
	C400.246002,119.289574 400.080414,117.069473 399.987793,114.509300
	C402.080658,115.705917 404.175873,117.297173 406.607910,118.976707
	C405.525299,120.290871 404.105835,121.516754 402.059326,122.736221
	C399.953735,121.498314 398.475189,120.266815 396.996674,119.035324
z"/>
<path fill="#FAF42F" opacity="1.000000" stroke="none"
	d="
M137.018524,44.074150
	C136.751877,44.829117 136.485214,45.584084 136.108398,46.623726
	C131.580856,47.574986 127.163475,48.241573 122.362915,48.501175
	C121.996765,46.784248 122.013779,45.474300 122.030792,44.164356
	C126.736374,43.781582 131.441956,43.398808 136.580292,43.271240
	C137.014862,43.709015 137.016693,43.891582 137.018524,44.074150
z"/>
<path fill="#FAF42F" opacity="1.000000" stroke="none"
	d="
M122.014420,43.910538
	C122.013779,45.474300 121.996765,46.784248 121.972061,48.488167
	C120.283539,48.940208 118.602684,48.998283 116.502617,49.090923
	C116.056183,48.350845 116.028969,47.576199 116.367905,46.401402
	C117.499916,45.352085 118.265778,44.702923 119.065918,43.800735
	C119.087975,43.377930 119.075737,43.208145 119.063499,43.038361
	C119.063499,43.038361 119.047737,43.071213 119.063812,43.085495
	C119.812218,43.113941 120.544548,43.128101 121.643784,43.145218
	C122.006470,43.317684 122.002258,43.487202 122.014420,43.910538
z"/>
<path fill="#FAF42F" opacity="1.000000" stroke="none"
	d="
M289.406403,111.001373
	C289.003967,111.034683 288.607574,110.931000 288.405579,110.910042
	C285.398682,109.584167 282.593750,108.279243 279.386414,106.498833
	C278.986084,104.037849 278.988159,102.052361 278.990234,100.066872
	C279.789215,99.712677 280.588165,99.358475 281.741608,98.985779
	C284.126526,99.307526 286.156982,99.647766 288.595001,100.406708
	C289.528534,105.958870 291.242523,107.010529 298.998962,106.958908
	C298.998962,106.958908 298.999084,106.988373 298.994019,107.423477
	C299.022095,109.532478 299.055237,111.206360 299.088409,112.880249
	C299.088409,112.880249 298.987152,113.007538 298.935669,113.070641
	C295.859039,112.411850 292.833954,111.689957 289.406403,111.001373
z"/>
<path fill="#FAF42F" opacity="1.000000" stroke="none"
	d="
M278.574921,100.048347
	C278.988159,102.052361 278.986084,104.037849 278.992493,106.447708
	C275.756287,105.494286 272.511597,104.116508 269.123840,102.044952
	C268.979767,100.577820 268.978790,99.804482 268.977783,99.031136
	C269.427216,99.019302 269.876648,99.007469 270.666870,99.309875
	C271.676849,103.200729 272.904907,100.859131 274.001770,99.906837
	C275.387726,99.947830 276.773651,99.988831 278.574921,100.048347
z"/>
<path fill="#FAF42F" opacity="1.000000" stroke="none"
	d="
M268.662567,98.858162
	C268.978790,99.804482 268.979767,100.577820 268.963989,101.739395
	C268.947235,102.127632 268.451935,102.077065 268.206909,102.121262
	C264.240356,101.353004 260.518829,100.540550 256.377319,99.273575
	C255.966537,97.879189 255.975708,96.939323 255.993713,95.757874
	C256.002563,95.516289 256.016113,95.032982 256.016113,95.032982
	C260.126526,96.250389 264.236908,97.467789 268.662567,98.858162
z"/>
<path fill="#FAF42F" opacity="1.000000" stroke="none"
	d="
M255.734818,94.733536
	C256.016113,95.032982 256.002563,95.516289 255.541290,95.756821
	C252.052704,95.993401 249.025421,95.989456 245.998123,95.985504
	C246.000015,95.546227 246.001892,95.106949 246.006470,94.338409
	C249.157272,94.150803 252.305405,94.292450 255.734818,94.733536
z"/>
<path fill="#FAF42F" opacity="1.000000" stroke="none"
	d="
M273.786560,99.659737
	C272.904907,100.859131 271.676849,103.200729 271.004059,99.311295
	C271.857452,99.136528 272.714386,99.274582 273.786560,99.659737
z"/>
<path fill="#FAF42F" opacity="1.000000" stroke="none"
	d="
M198.023193,66.286316
	C200.443207,67.607483 202.840927,69.292488 205.610474,70.985115
	C205.990128,72.048691 205.997971,73.104660 205.694153,74.608932
	C204.588028,75.708878 203.793549,76.360519 202.999084,77.012161
	C200.675461,75.257668 198.351822,73.503174 196.015259,71.363823
	C196.668518,69.536034 197.334717,68.093102 198.023193,66.286316
z"/>
<path fill="#FAF42F" opacity="1.000000" stroke="none"
	d="
M202.933228,77.376587
	C203.793549,76.360519 204.588028,75.708878 205.697601,75.004791
	C208.098938,75.659538 210.185150,76.366730 212.662628,77.141991
	C210.142929,78.628647 207.231964,80.047241 204.320999,81.465836
	C204.013779,81.099075 203.706573,80.732307 203.399368,80.365540
	C203.268600,81.638985 203.137833,82.912430 203.003204,84.593735
	C202.009735,84.241821 200.066681,83.180313 200.195145,82.774361
	C200.758850,80.993080 201.921768,79.401428 202.933228,77.376587
z"/>
<path fill="#FAF42F" opacity="1.000000" stroke="none"
	d="
M137.465469,44.065281
	C137.016693,43.891582 137.014862,43.709015 137.005981,43.252457
	C137.075150,41.549038 137.151367,40.119602 137.263931,38.008141
	C140.040817,38.008141 142.578415,38.008141 145.570282,38.020233
	C146.007568,39.683224 145.990585,41.334126 145.952957,43.389908
	C143.259018,43.882000 140.585724,43.969208 137.465469,44.065281
z"/>
<path fill="#FAF42F" opacity="1.000000" stroke="none"
	d="
M159.500549,29.993114
	C159.784454,31.537003 159.636856,33.085068 159.206848,34.912010
	C157.209625,35.458206 155.494812,35.725529 153.398529,35.981659
	C152.563919,35.341152 152.110779,34.711830 151.340591,34.044914
	C151.160004,27.563721 156.150696,30.859423 159.500549,29.993114
z"/>
<path fill="#FAF42F" opacity="1.000000" stroke="none"
	d="
M390.567993,111.020866
	C391.308563,112.445854 391.617126,113.864136 391.584106,115.574570
	C386.475677,112.759842 380.265900,113.227852 377.958344,116.867905
	C375.917633,116.232445 373.876953,115.596992 371.481140,114.881485
	C370.160553,113.086594 369.195007,111.371750 368.093048,109.347374
	C370.088318,108.676552 372.219971,108.315269 374.719757,107.925423
	C376.773163,107.914383 378.458435,107.931900 380.566956,107.941650
	C384.038788,108.960648 387.087341,109.987411 390.567993,111.020866
z"/>
<path fill="#FAF42F" opacity="1.000000" stroke="none"
	d="
M396.703796,118.915054
	C398.475189,120.266815 399.953735,121.498314 401.746582,122.885834
	C401.385376,124.442001 400.709839,125.842133 399.968811,127.566498
	C399.192535,127.890114 398.481720,127.889503 397.396118,127.496376
	C395.755341,125.112465 394.489349,123.121078 393.347260,121.324631
	C391.884338,122.493538 390.933075,123.253586 389.981842,124.013641
	C388.338654,123.269440 386.695435,122.525238 385.249420,121.100548
	C387.639221,119.942261 389.831848,119.464462 392.024475,118.986664
	C393.486603,118.922714 394.948761,118.858749 396.703796,118.915054
z"/>
<path fill="#FAF42F" opacity="1.000000" stroke="none"
	d="
M392.017639,118.614960
	C389.831848,119.464462 387.639221,119.942261 385.223083,120.710304
	C382.892609,119.658012 380.785614,118.315475 378.318481,116.920425
	C380.265900,113.227852 386.475677,112.759842 391.620087,115.939697
	C392.002045,116.756195 392.006409,117.499725 392.017639,118.614960
z"/>
<path fill="#FAF42F" opacity="1.000000" stroke="none"
	d="
M390.001892,124.375320
	C390.933075,123.253586 391.884338,122.493538 393.347260,121.324631
	C394.489349,123.121078 395.755341,125.112465 397.039917,127.477524
	C393.944611,128.549240 390.807831,129.299011 390.001892,124.375320
z"/>
<path fill="#FAF42F" opacity="1.000000" stroke="none"
	d="
M298.930115,106.598747
	C291.242523,107.010529 289.528534,105.958870 288.985748,100.417282
	C290.669220,100.014145 292.369476,100.019127 294.489349,100.057747
	C294.011536,103.564476 296.547394,104.830177 298.930115,106.598747
z"/>
<path fill="#FAF42F" opacity="1.000000" stroke="none"
	d="
M299.418884,112.739029
	C299.055237,111.206360 299.022095,109.532478 298.989929,107.437630
	C301.948730,107.360855 305.679291,105.783195 307.008942,110.619049
	C304.603973,111.536774 302.176666,112.067299 299.418884,112.739029
z"/>
<path fill="#FAF42F" opacity="1.000000" stroke="none"
	d="
M370.013123,104.562073
	C369.345306,103.564705 368.674255,102.175674 367.999420,100.390625
	C368.667053,101.386543 369.338440,102.778481 370.013123,104.562073
z"/>
<path fill="#FAF42F" opacity="1.000000" stroke="none"
	d="
M233.519989,99.016754
	C234.433014,99.012207 234.884720,99.020805 236.127014,99.031555
	C239.933136,99.008736 242.948700,98.983757 246.367676,98.971001
	C248.501160,99.291924 250.231216,99.600624 251.961273,99.909317
	C251.053177,101.055344 250.145081,102.201378 249.072479,103.617935
	C246.570633,102.659828 244.803329,101.958382 241.907944,103.953979
	C239.585144,105.554932 235.620193,104.826637 232.377258,105.018295
	C230.568268,105.125214 228.745560,105.000061 226.462036,104.953033
	C226.720383,100.705994 224.626846,99.447258 220.381531,99.982025
	C224.319122,99.655769 228.688904,99.342834 233.519989,99.016754
z"/>
<path fill="#FAF42F" opacity="1.000000" stroke="none"
	d="
M252.361481,99.895470
	C250.231216,99.600624 248.501160,99.291924 246.377411,98.601799
	C245.984253,97.479530 245.984802,96.738686 245.985352,95.997841
	C245.985352,95.997841 245.997238,96.000069 245.997681,95.992790
	C249.025421,95.989456 252.052704,95.993401 255.532440,95.998405
	C255.975708,96.939323 255.966537,97.879189 255.937073,99.165466
	C254.865082,99.635139 253.813385,99.758377 252.361481,99.895470
z"/>
<path fill="#FAF42F" opacity="1.000000" stroke="none"
	d="
M118.677849,43.028431
	C119.075737,43.208145 119.087975,43.377930 118.694626,43.792366
	C117.549286,44.056667 116.809532,44.076305 116.069778,44.095947
	C115.256439,44.061813 114.443100,44.027683 113.273300,43.783401
	C112.916832,43.573246 112.992973,43.202549 112.992973,43.202549
	C113.740761,43.155666 114.488541,43.108784 115.607956,43.013947
	C116.750458,42.983494 117.521332,43.000999 118.677849,43.028431
z"/>
<path fill="#FAF42F" opacity="1.000000" stroke="none"
	d="
M116.042160,44.416649
	C116.809532,44.076305 117.549286,44.056667 118.660339,44.045395
	C118.265778,44.702923 117.499916,45.352085 116.385880,46.014282
	C116.029984,45.597328 116.022263,45.167336 116.042160,44.416649
z"/>
<path fill="#FAF42F" opacity="1.000000" stroke="none"
	d="
M112.580818,43.145798
	C112.992973,43.202549 112.916832,43.573246 112.867157,43.755920
	C111.633324,43.846439 110.449165,43.754284 109.050583,43.375267
	C109.946991,43.088623 111.057831,43.088833 112.580818,43.145798
z"/>
<path fill="#FAF42F" opacity="1.000000" stroke="none"
	d="
M245.534225,95.997452
	C245.984802,96.738686 245.984253,97.479530 245.973984,98.589577
	C242.948700,98.983757 239.933136,99.008736 236.465546,99.020798
	C236.926880,98.008446 237.696777,96.397552 238.784744,96.142296
	C240.785416,95.672890 242.973267,96.001228 245.534225,95.997452
z"/>
</svg>
